<svg width="42" height="41" viewBox="0 0 42 41" fill="none" xmlns="http://www.w3.org/2000/svg">
<circle cx="20.6741" cy="20.3703" r="19.9275" fill="white" stroke="#EFEFEF" stroke-width="0.885666"/>
<path fill-rule="evenodd" clip-rule="evenodd" d="M16.1324 13.9269C21.4845 8.62532 27.919 7.26053 30.4999 10.8851C33.0808 14.5097 30.8329 21.7499 25.4808 27.0545C20.1286 32.359 13.6972 33.7208 11.1163 30.0963C8.53535 26.4717 10.7832 19.2315 16.1324 13.9269Z" fill="#E77817"/>
<path fill-rule="evenodd" clip-rule="evenodd" d="M19.6677 11.1084C19.0441 11.5685 18.4548 12.0733 17.9045 12.6189C13.2243 17.2247 11.2827 23.5581 13.5841 26.7248C15.9628 29.8914 21.7164 28.7378 26.4679 24.0487C29.022 21.5778 30.7496 18.6698 31.4691 15.964C31.6832 13.9867 31.3978 12.2235 30.4968 10.8914C28.4452 8.08449 24.0565 8.30155 19.6677 11.1084Z" fill="#97291E"/>
<path fill-rule="evenodd" clip-rule="evenodd" d="M26.0754 10.9388C26.6968 11.5602 26.3163 12.922 25.2577 13.9924C24.1992 15.0629 22.7987 15.4316 22.1951 14.8191C21.5915 14.2065 21.9394 12.8269 23.0009 11.7475C24.0624 10.6682 25.4718 10.3441 26.0754 10.9388ZM22.3111 29.6712C19.8134 31.5474 17.2295 32.4751 14.7111 32.0856C15.7696 32.1421 16.623 30.9676 17.3217 29.4095C17.9529 27.9531 18.4505 26.4424 18.8084 24.8959C19.305 22.6807 19.3436 21.0959 19.0909 20.754C18.6627 20.189 17.6904 20.3377 16.5932 20.9681C16.0669 21.2654 15.3682 21.0662 16.1948 20.076C17.0214 19.0859 20.3576 16.6328 21.5469 16.2552C22.8582 15.8746 24.3568 16.389 23.8513 17.8281C23.4885 18.848 18.8887 30.9171 22.3111 29.6712Z" fill="white"/>
</svg>
