<svg width="22" height="21" viewBox="0 0 22 21" fill="none" xmlns="http://www.w3.org/2000/svg">
<g opacity="0.6">
<path fill-rule="evenodd" clip-rule="evenodd" d="M4.77475 2.28389C4.77475 3.52898 3.82671 4.5366 2.34415 4.5366C0.919355 4.5366 -0.0286772 3.52898 0.000662254 2.28389C-0.0286772 0.978283 0.919332 0 2.37255 0C3.82669 0 4.74633 0.978283 4.77475 2.28389ZM0.119858 20.8191V6.31621H4.62712V20.8181H0.119858V20.8191Z" fill="#24282E"/>
<path fill-rule="evenodd" clip-rule="evenodd" d="M8.23974 10.9441C8.23974 9.13517 8.18014 7.59301 8.12054 6.31767H12.0355L12.2436 8.3045H12.3326C12.9258 7.38489 14.4084 5.99219 16.8105 5.99219C19.7757 5.99219 22 7.94968 22 12.2186V20.8205H17.4927V12.7833C17.4927 10.9139 16.8408 9.63944 15.2097 9.63944C13.9637 9.63944 13.2229 10.4995 12.9267 11.3292C12.8075 11.6263 12.7489 12.0407 12.7489 12.4569V20.8205H8.24156V10.9441H8.23974Z" fill="#24282E"/>
</g>
</svg>
