<svg width="40" height="40" viewBox="0 0 40 40" fill="none" xmlns="http://www.w3.org/2000/svg">
<path d="M27 28.6522H12V20.1739C12 16.2119 15.2119 13 19.1739 13V13C23.136 13 26.3478 16.2119 26.3478 20.1739V23.7609V26.6957" stroke="black" stroke-width="1.30435"/>
<path d="M12.6521 20.1739H26.3478" stroke="black" stroke-width="1.30435"/>
<path d="M17.2607 25.1472L17.0187 25.3892V26.1739H16.1602V22.2583H17.0187V24.3371L17.1053 24.2225L17.7524 23.4174H18.7816L17.8161 24.5511L18.8453 26.1739H17.862L17.2607 25.1472ZM19.8185 23.4174L19.8465 23.741C20.0418 23.4913 20.3042 23.3665 20.6337 23.3665C20.9819 23.3665 21.2171 23.5049 21.3394 23.7817C21.5262 23.5049 21.7962 23.3665 22.1495 23.3665C22.7083 23.3665 22.9953 23.7045 23.0106 24.3804V26.1739H22.1495V24.4339C22.1495 24.2929 22.1257 24.1902 22.0782 24.1257C22.0306 24.0611 21.944 24.0288 21.8183 24.0288C21.6485 24.0288 21.522 24.1044 21.4387 24.2556L21.4413 24.2912V26.1739H20.5802V24.439C20.5802 24.2946 20.5573 24.1902 20.5114 24.1257C20.4656 24.0611 20.3781 24.0288 20.249 24.0288C20.0843 24.0288 19.9586 24.1044 19.872 24.2556V26.1739H19.0135V23.4174H19.8185Z" fill="#92C83E"/>
</svg>
