<svg width="40" height="40" viewBox="0 0 40 40" fill="none" xmlns="http://www.w3.org/2000/svg">
<path d="M29.8531 22.0308C26.7154 19.1524 23.2924 17.2853 21.4513 16.9742C20.2837 16.7766 19.2031 16.8403 18.2097 17.4412" stroke="#92C83E" stroke-width="1.50237"/>
<path d="M14.3976 21.2009C14.3976 21.2009 13.6975 19.9302 13.0492 19.4635C11.7786 18.5559 10.9747 18.1669 11.0006 16.8962C11.0265 15.1329 12.738 13.9919 13.4641 13.8882C15.1496 13.6289 16.1091 14.2512 16.7055 14.0438C17.6131 13.7067 17.4835 13.4474 17.7428 12.8509C17.9762 12.2545 18.028 11.7359 18.6763 11.4247C19.558 10.9839 21.0102 10.7246 21.9696 11.4766C22.6438 12.0471 22.7476 12.4879 23.0069 12.7731" stroke="white" stroke-width="1.50237"/>
<path d="M14.3452 28.2287C12.9464 26.2839 12.4004 24.2718 12.3235 22.5172" stroke="white" stroke-width="1.50237"/>
<path d="M23.2924 28.3319C23.2924 28.3319 18.0802 25.3498 15.2796 19.4892C14.346 17.6222 14.9684 16.4553 15.3055 15.9107C15.8501 15.029 18.5729 12.4099 22.3589 12.7471C24.4075 12.9804 27.3637 13.9658 29.8531 15.5736" stroke="white" stroke-width="1.50237"/>
</svg>
