<svg width="40" height="40" viewBox="0 0 40 40" fill="none" xmlns="http://www.w3.org/2000/svg">
<path d="M24.3571 22.2321L23.4464 25.875C22.5357 27.3929 21.5807 28 19.5 28C14.8056 28 11 24.1944 11 19.5C11 14.8056 14.8056 11 19.5 11C24.1944 11 28 13.7321 28 19.5L27.123 20.4841" stroke="white" stroke-width="1.26455"/>
<path d="M24.3662 16.9649C24.8599 17.8253 24.5626 18.9232 23.7022 19.4169C22.8417 19.9106 21.7439 19.6134 21.2501 18.7529C21.15 18.5783 21.0393 18.1724 20.95 17.5567C20.8652 16.9718 20.8107 16.2862 20.7763 15.6244C20.7501 15.1219 20.7358 14.6393 20.7282 14.234C21.0742 14.4451 21.4837 14.701 21.9043 14.9771C22.4583 15.3408 23.0227 15.7338 23.4848 16.1022C23.9714 16.49 24.266 16.7903 24.3662 16.9649Z" stroke="white" stroke-width="1.26455"/>
<circle cx="16.4645" cy="23.1428" r="1.18915" stroke="#92C83E" stroke-width="1.26455"/>
<circle cx="15.8568" cy="17.6784" r="1.18915" stroke="#92C83E" stroke-width="1.26455"/>
<path d="M27.6847 26.1107L23.5192 18.8513L28.7041 25.226L27.6847 26.1107Z" stroke="white" stroke-width="1.26455"/>
</svg>
